<?xml version="1.0" encoding="utf-8"?>
<!-- Generator: Adobe Illustrator 21.0.0, SVG Export Plug-In . SVG Version: 6.00 Build 0)  -->
<svg version="1.1" id="Layer_1"   xmlns="http://www.w3.org/2000/svg" xmlns:xlink="http://www.w3.org/1999/xlink" x="0px" y="0px"
	 viewBox="0 0 700 93.6" style="enable-background:new 0 0 700 93.6;" xml:space="preserve">
<style type="text/css">
	.st0{fill:#FFFFFF;}
</style>
<circle class="st0" cx="194.5" cy="47.8" r="17"/>
<circle class="st0" cx="227.7" cy="51.9" r="21.1"/>
<circle class="st0" cx="305.4" cy="49.9" r="14.9"/>
<circle class="st0" cx="362.5" cy="50" r="9"/>
<circle class="st0" cx="166" cy="52.5" r="11.5"/>
<circle class="st0" cx="271.9" cy="52.5" r="9.7"/>
<circle class="st0" cx="255.5" cy="43.9" r="9.7"/>
<circle class="st0" cx="329.5" cy="57.1" r="7.7"/>
<circle class="st0" cx="339.4" cy="34.6" r="3.8"/>
<circle class="st0" cx="285.2" cy="42.1" r="3.6"/>
<circle class="st0" cx="128.5" cy="38.3" r="7.5"/>
<circle class="st0" cx="90.5" cy="58" r="17"/>
<circle class="st0" cx="49.9" cy="48.6" r="12.4"/>
<circle class="st0" cx="12.5" cy="54.9" r="11"/>
<circle class="st0" cx="30.8" cy="34.2" r="5.8"/>
<circle class="st0" cx="520.5" cy="40.5" r="17"/>
<circle class="st0" cx="553.7" cy="44.6" r="21.1"/>
<circle class="st0" cx="631.4" cy="42.6" r="14.9"/>
<circle class="st0" cx="688.5" cy="42.7" r="9"/>
<circle class="st0" cx="492" cy="45.2" r="11.5"/>
<circle class="st0" cx="597.9" cy="45.2" r="9.7"/>
<circle class="st0" cx="581.5" cy="36.6" r="9.7"/>
<circle class="st0" cx="661.5" cy="44.8" r="7.7"/>
<circle class="st0" cx="665.4" cy="27.3" r="3.8"/>
<circle class="st0" cx="611.2" cy="34.8" r="3.6"/>
<circle class="st0" cx="454.5" cy="30.9" r="7.5"/>
<circle class="st0" cx="416.5" cy="50.7" r="17"/>
<circle class="st0" cx="375.9" cy="41.3" r="12.4"/>
<circle class="st0" cx="338.5" cy="47.6" r="11"/>
<circle class="st0" cx="356.8" cy="26.9" r="5.8"/>
<circle class="st0" cx="462.5" cy="52.2" r="10.1"/>
<circle class="st0" cx="420.6" cy="17.1" r="4"/>
<circle class="st0" cx="399.5" cy="5" r="3.5"/>
<circle class="st0" cx="262.2" cy="71.2" r="3.5"/>
<circle class="st0" cx="279.8" cy="74.8" r="1.8"/>
<circle class="st0" cx="388.4" cy="62.2" r="5.8"/>
<circle class="st0" cx="443" cy="47.6" r="4"/>
<circle class="st0" cx="377.7" cy="5" r="1.8"/>
<circle class="st0" cx="482.3" cy="13" r="1.8"/>
<circle class="st0" cx="652.1" cy="14.8" r="1.8"/>
<circle class="st0" cx="73.5" cy="31.1" r="3.5"/>
<circle class="st0" cx="131" cy="65.9" r="3.5"/>
<circle class="st0" cx="155.8" cy="31" r="7.5"/>
<circle class="st0" cx="12.5" cy="34.8" r="3.5"/>
<circle class="st0" cx="27.1" cy="64.8" r="9.7"/>
<circle class="st0" cx="30.8" cy="48.6" r="1.8"/>
<circle class="st0" cx="635.4" cy="17.1" r="4"/>
<circle class="st0" cx="652.1" cy="61" r="4"/>
<circle class="st0" cx="506.9" cy="64.8" r="3.6"/>
<circle class="st0" cx="688.5" cy="26.9" r="1.8"/>
</svg>
