<?xml version="1.0" encoding="utf-8"?>
<!-- Generator: Adobe Illustrator 21.0.0, SVG Export Plug-In . SVG Version: 6.00 Build 0)  -->
<svg version="1.1" id="Layer_1" xmlns="http://www.w3.org/2000/svg" xmlns:xlink="http://www.w3.org/1999/xlink" x="0px" y="0px"
	 viewBox="0 0 150 180" style="enable-background:new 0 0 150 180;" xml:space="preserve">
<g>
	<g>
		<g>
			<path d="M87.3,85.5c-0.1-2.3-2-4-4.2-4H68.4c-1.2-3.1-2.4-7.1-3.1-11.9c-0.6-4-0.6-7.6-0.5-10.5c-0.2-1.4-0.9-4.3-3.1-7
				c-2.7-3.4-6.9-5.5-11.6-5.5c-7.4,0-13.5,5.3-14.7,12.5l-3.5,22.5H17.2c-2.3,0-4.1,1.8-4.2,4c-0.2,4.1-0.5,10.3-0.8,17.9
				c-0.4,11.3-0.2,10.8-0.5,16.2c-0.8,16.6-2.5,21-2.9,35.9c-0.2,5.6-0.1,10.2,0,13.1c0,0.3-0.1,1.8,1.2,3.1
				c0.8,0.8,1.9,1.3,3.1,1.3c11,0.8,22.7,1.4,35.1,1.4c13.9,0.1,27-0.5,39.1-1.4c0.8-0.1,2.1-0.3,3.1-1.3c0.8-0.8,1.2-2,1.2-3.1
				c0-14.6-0.9-26.4-1.7-34.5c-0.8-8.3-1.5-12.8-2.1-21.5C86.9,101.2,87.1,91.7,87.3,85.5z M39.5,59.7c0.8-5.3,5.3-9.1,10.6-9.1
				c5.3,0,9.8,3.8,10.6,9.1c-0.2,3-0.1,6.7,0.5,11c0.7,4.4,1.8,8,2.9,10.8c-9.4,0-18.8,0-28.1,0c0-3.1,0.1-6.7,0.7-10.7
				C37.5,66.5,38.5,62.7,39.5,59.7z M87.3,169C87.3,169,87.3,169,87.3,169C87.3,169,87.2,169,87.3,169c-11.4,1.8-24.8,3.1-39.8,2.9
				c-12.9-0.1-24.5-1.3-34.4-2.9c0,0,0,0,0,0c0,0,0,0-0.1,0c0,0,0,0,0-0.1c0,0,0,0,0,0c0-0.1-0.9-10.9-1-11.7
				c-0.5-6.6,1.1-18.2,2.4-35.6c0.7-8.9,0.9-13.4,1-14.3c0.7-8.8,1.3-16.2,1.7-21.5c0,0,0-0.1,0-0.1c0,0,0.1,0,0.1,0h14.1l-0.7,4.2
				c-0.2,1.1,0.6,2.2,1.7,2.3c0.1,0,0.2,0,0.3,0c1,0,1.9-0.7,2-1.7l0.8-4.8h29.4l0.8,4.8c0.2,1.1,1.2,1.9,2.3,1.7
				c1.1-0.2,1.9-1.2,1.7-2.3L69,85.6h14.1c0.1,0,0.1,0.1,0.1,0.1c0.9,13.2,1.5,23.9,1.8,31.2c1.4,30,0.1,26.9,1.3,32
				C86.4,149,90.3,165.8,87.3,169z"/>
		</g>
	</g>
	<path d="M93,115.7"/>
	<g>
		<path d="M76,97.3c-1.3,0.4-2.4,1.9-4.8,5.1c-2.4,3.1-5.6,7.6-5.6,7.6s-1.5-0.7-3.2-1c-1.8-0.3-2.5,0.7-3.4,2.1
			c-0.8,1.4-0.2,3.3-0.8,2.8c-0.6-0.5-2.6,0.2-4.5,1.8c-1.9,1.6-1,4.6-1,4.6c-1.7,0.3-2.6,1.8-2.9,2.7s0.9,3.3,0.2,2.8
			s-2.6-0.4-4.2,0.1c-1.6,0.5-3,1.4-4.2,3.5c-1.2,2.1,1.4,7,1.2,7.3s-0.5-0.6-1.5-2c-1-1.4-1.7-1.4-3.2-0.6
			c-1.5,0.7-2.2,4.4-2.4,4.9c-0.2,0.5-0.7,0-2.4,0.7c-1.7,0.7-2.2,1.7-2.6,2.9c-0.5,1.2-1.3,1.1-2.8,2.8c-1.5,1.6-0.6,5.8-0.4,7.3
			c0.2,1.5-3.3,6.2-4.4,7.9c-1,1.7-1.6,3.5-0.3,3.9c1.3,0.4,7.9-7,8.5-8c0.6-0.9,0-1,1.1-1.6c1-0.5,1.5,0.3,2.1,0.7
			c0.6,0.4,0.7-0.2,1.4-0.4c0.7-0.2,0.9,0.3,2.2,1.2c1.3,1,4.5-0.4,5.8-2.8c1.3-2.4-0.6-7.9-0.6-7.9s1.1-0.6,3-2.4s0.8-3.1,0.6-3.9
			c-0.1-0.8,3.7-0.9,5.6-2.7c1.9-1.8,0.7-5.2,0.7-5.2s3.3,0.5,5.4,0.3c2.1-0.2,0.3-2.5,0.9-3.7c0.7-1.2,3.7-0.1,5.6-0.1
			c1.9,0.1,0.6-3.3,0.4-4.1c-0.2-0.7,0.1-0.8,0.9-1.1c0.8-0.3,3.3-0.5,4.6-3.6c1.3-3.1-1.3-6.1-1.4-6.4c-0.2-0.3,0.9-1.3,3.3-4.5
			c2.5-3.2,3.9-5.1,4.9-7.5C78.9,98.5,77.2,96.9,76,97.3z M42.2,149.2c0.1,1.2,0.4,4.4-1.4,5c-1.8,0.6-3-0.4-4.1-0.7
			c-1.2-0.3-2-0.3-3.2,0.2c-1.1,0.5-3.9-0.3-4.4-1.7c-0.5-1.4-1.9-4.2,0.3-5.8c2.2-1.6,2.9-3.1,3.6-4.2c0.7-1.1,1.8-1.6,3.2-0.6
			c1.4,1,4.1,2.9,4.9,3.9S42,148,42.2,149.2z M45.7,141.4c-0.4,0.9-1.1,1.4-1.1,1.2c0-0.3,0.7-1.4,0.2-1.6s-1.1,1.5-1.9,2.2
			c-0.8,0.7-1.8,0.7-1.2-0.3s2-2.5,1.4-3.2c-0.6-0.7-0.9,0.5-1.7,1.5c-0.7,1.1-1.3,1.6-1.7,1.3s0.6-2,0.9-2.3
			c0.3-0.3,0.8-0.9,0.5-1.2c-0.3-0.2-1.2,0.7-1.7,1.3s-0.5,0.9-0.8,0.6s0.3-1.5,0.8-2.1c0.4-0.7,0.6-0.7,0.4-0.9
			c-0.2-0.2-1.4,1.1-1.4,1.1c-0.6,0.7-1.4,1-0.9-0.5c0.4-1.5,1.5-2.7,1.8-3s1.4-0.3,1.6,0.7c0.2,1,0,1.7,1,2s3.2,0,3.6,1
			C45.8,140.3,46.2,140.5,45.7,141.4z M51.9,134.1c-0.4,1.6-1.3,2.8-2.8,3c-1.6,0.2-1.9,0.2-2.2,0.3c-0.3,0.1-1.1,0.2-2.2-0.5
			c-0.3-0.2-1.3-1.6-1.6-3.8c-0.2-2.2,0.2-3.9,1.7-5c1.5-1.2,3.8-1.4,5.2,0.2C51.4,130,52.3,132.5,51.9,134.1z M56.5,124.6
			c0,1.4-0.3,2.1,0.1,2.7c0.4,0.5,0.9,0.9,0.7,1.2c-0.1,0.3-0.9,1-1.4,1.5c-0.4,0.5-1.7,0.5-1.4-0.4c0.3-0.8,1.3-2.3,1.1-2.6
			c-0.3-0.3-1.2,0.1-1.8,0.8c-0.6,0.7-0.9,1.6-1.4,1.1c-0.4-0.5,0.9-1.9,1.4-2.7c0.4-0.9,1.1-1.4,0.8-1.5c-0.4-0.2-1.6,0.8-2,1.4
			c-0.4,0.6-1.3,0.6-0.8-0.5c0.2-0.5,1.1-2.5,1.5-2.2c0.4,0.3,1,0.6,1,0.2c0-0.5-0.4-1.3,0.6-1.2S56.6,123.3,56.5,124.6z
			 M64.4,124.5c0.1,0.8,0.4,1.6-0.3,1.8s-2.4,0.1-3-0.1c-0.6-0.2-0.8-0.7-1.3-0.5c-0.5,0.2-1.4,1.7-1.6,0.6
			c-0.2-1.1-0.3-3.9-0.9-4.3c-0.9-0.6-3.4-2.3-2.7-3.8c0.7-1.4,2.2-2.3,3-2.4c0.8-0.1,2.7,1.2,3.2,2.7c0.5,1.6,0.9,2.6,2,3.7
			C63.9,123.5,64.3,123.7,64.4,124.5z M69.6,117.4c-0.1,1.2-0.2,1.4-1.2,2c-1,0.6-2.4,1.5-2.2,1.2c0.2-0.4,1.9-2.9,1.4-3.2
			c-0.5-0.3-1.1,1-2,2.1c-0.9,1.2-0.8,1.8-1.5,1.6c-0.7-0.2-0.5-1.1,0.4-2.4s1.8-3,1.5-3.2c-0.2-0.2-1.5,1.3-2.1,2.2
			c-0.6,0.9-0.9,1.6-1.3,1.2c-0.4-0.4-0.4-1.4,0.3-2.3c0.7-0.8,2.2-2.4,1.7-3c-0.6-0.6-1.5,1.1-2.3,2c-0.8,0.9-1.4,0.9-1.7,0.6
			c-0.4-0.4-0.7-0.7,0-1.6c0.7-1,1.7-1.4,1.3-1.9c-0.4-0.5-1,0.4-1.6,0.4c-0.3,0,0-2,1.4-2.1c1.4,0,2.5,0.2,2.7,0.8
			c0.1,0.6,1,2.7,1.8,2.6s1.4-0.9,2.2-0.5C69.2,114.3,69.7,116.2,69.6,117.4z M30.3,139.9c0.9-1-0.6-2.1-1.7-2.9
			c-1.1-0.8-0.6-2.1,0.2-3.3c0.8-1.2,1-1.6,0.4-3.8c-0.6-2.2-4.2-7.9-4.9-7c-0.7,0.9,1.9,5.5,3.3,7.1c1.4,1.6-0.9,3.4-1.5,5
			c-0.6,1.6,1.1,3.3,2.3,4.2S30,140.2,30.3,139.9z M36.9,130.5c-0.4,1.1,0.1,1.3,0.8,1.4c1.4,0.2,1.4-2.2,1-4.1
			c-0.4-1.9-1.2-1.6-2.4-2.7c-1.1-1.1-1-2.7-0.8-4.3c0.2-1.6-0.7-2.9-1.3-2.9s-0.3,0.4-0.6,3.5c-0.4,3.1,1.1,4.5,2.3,5.5
			C37.3,127.8,37.3,129.3,36.9,130.5z M41.6,120.4c0.8,1.7,2.7,3.1,3.4,2.7c0.8-0.4,0.2-1.3-1.1-2.5c-1.4-1.2-0.9-2.9-0.5-4.9
			c0.4-2.1-2.7-5.6-3.2-4.7c-0.5,0.9,1.5,3.7,1.6,4.9C41.7,117.1,40.7,118.7,41.6,120.4z M48.9,110.9c1.3,1.1,1,2.1,0.6,3.9
			c-0.3,1.8,1,2.4,1.4,2.4c1.4-0.2,0.5-2.4,0.5-4.3c0-1.8-0.1-2.5-2.5-3.8c-2.4-1.2-1.9-4.7-2.4-5c-0.5-0.3-0.9,0.2-1.1,3
			C45.3,109.9,47.6,109.8,48.9,110.9z M56.9,109.8c0.7-0.3,0.1-1.3-0.2-2.3c-0.3-1.1-0.5-4.1-1.6-3.6
			C54.1,104.4,56.2,110.1,56.9,109.8z"/>
	</g>
</g>
<path d="M97.1,79.9c7-1.1,14.4-0.6,21.4,0.1c7.1,0.7,14.5,1.4,21.3,3.5c2.3,0.7,1.6,4.6-0.8,4.2c-6.9-1.3-13.8-3-20.7-3.9
	c-7-0.9-14.1-0.8-21-1.6C96.1,82,95.8,80.1,97.1,79.9z"/>
<path d="M113.3,63.6c1.5-0.2,2.1,2.1,0.5,2.4c-5.3,0.9-10,2.5-15,4.1c-1,0.3-1.5-1.3-0.6-1.7C102.9,65.9,108.1,64.5,113.3,63.6z"/>
<path d="M111.1,44.1c8.6-5.4,17.2-10.7,25.8-15.9c1.7-1,3,1.7,1.4,2.7c-7.8,4.8-15.5,9.6-23.3,14.4c-7.3,4.4-15.1,8.5-21.4,14.4
	c-1,1-2.7-0.4-1.8-1.6C96.9,52,104.5,48.2,111.1,44.1"/>
<path d="M84.4,48.2c2-3.6,4.3-7.3,6.9-10.6c1.1-1.4,3.3,0,2.3,1.5c-2.3,3.6-5,7.1-7.8,10.2C85,50.1,83.9,48.9,84.4,48.2z"/>
<path d="M85.3,7.7C83.7,13.9,81,20,78.9,26.1c-1.9,5.4-3.2,12-6.7,16.6c-0.5,0.7-1.5,0.3-1.6-0.5c-0.1-6,3-12.6,4.9-18.2
	c2-6,3.9-12.1,6.7-17.8C83.3,4.4,85.8,6,85.3,7.7z"/>
<path d="M105.8,16.7c1.1-1.1,2.7,0.6,1.6,1.8c-1.5,1.7-3,3.6-4.5,5.3c-1.3,1.5-2.4,3.2-3.8,4.5c-0.4,0.4-1.1-0.1-1-0.7
	C99.5,23.7,103,19.9,105.8,16.7z"/>
<path d="M100.5,94.6c5.2-0.6,11.1,3.6,14.6,7.1c1.6,1.7-1.1,4.1-2.7,2.5c-1.7-1.9-3.6-3.5-5.8-4.8c-2-1.2-4.4-1.7-6.4-2.9
	C99.5,95.9,99.6,94.7,100.5,94.6z"/>
<path d="M55.7,24.7c1.1,3.2,2.2,6.4,3.2,9.6c0.4,1.3-1.8,2.1-2.2,0.8c-1.2-3.1-2.6-6.2-3.8-9.4C52.1,23.6,55,22.5,55.7,24.7z"/>
</svg>
