<?xml version="1.0" encoding="utf-8"?>
<!-- Generator: Adobe Illustrator 27.3.1, SVG Export Plug-In . SVG Version: 6.00 Build 0)  -->
<svg version="1.1" id="Layer_1" xmlns="http://www.w3.org/2000/svg" xmlns:xlink="http://www.w3.org/1999/xlink" x="0px" y="0px"
	 viewBox="0 0 325 100" style="enable-background:new 0 0 325 100;" xml:space="preserve">
<style type="text/css">
	.st0{fill:#FFFFFF;}
	.st1{fill:#F9A625;}
	.st2{fill:none;}
	.st3{font-family:'BradleyHandITC';}
	.st4{font-size:34.346px;}
</style>
<path class="st0" d="M182.6,16.7c-0.1,0-0.3,0-0.4,0c-0.5,0.2-1,0.2-1.6,0.2c-0.4,0-0.7,0-1.1-0.1c0.4,0.3,0.7,0.4,1.1,0.4
	c0.4,0,0.8,0,1.3-0.2c0.3-0.1,0.7-0.2,1-0.4C182.8,16.6,182.7,16.7,182.6,16.7z"/>
<path class="st0" d="M230.2,49.5c0.2-0.1,0.3-0.2,0.5-0.2c-1.9-0.1-3.2-1-3.9-2.4v0.3c0.1,0.4,0.1,0.8,0.3,1
	C227.7,49.7,228.7,50.1,230.2,49.5z"/>
<path class="st0" d="M322,49.3c0-2-1.3-10.1-9.4-15.5c0.4,0.1,0.8,0.1,1.2,0.2c-0.3-0.2-0.5-0.5-0.8-0.7c-0.1,0-0.3,0-0.4-0.1
	c-1-0.2-1.9-0.5-2.6-0.8c-0.6-0.3-1.1-0.6-1.5-0.9c-0.5-0.1-0.9-0.3-1.2-0.6c-0.9-0.1-1.6-0.5-2.2-1c-0.1,0-0.1,0-0.2-0.1
	c0.1,0.3,0.2,0.5,0.3,0.8c-2.1-0.6-4.5-1.1-7.2-1.3c-23.4-1.6-44.8,10.7-70.3,23.2c-0.4-2-0.9-3.9-1.5-5.7c0.1-0.1,0.3-0.3,0.4-0.4
	c-0.2-0.4-0.3-0.8-0.4-1.3l-0.5,0.5c-5.6-15.4-18.5-23.4-32.9-26.9c-1.3-0.3-2.6-0.5-3.9-0.8c0.2,0,0.4,0,0.6,0
	c-1.1-0.1-2-0.4-2.7-1c0,0-0.1,0-0.1,0c0,0.1,0.1,0.1,0.1,0.2c0.2,0.3,0.5,0.5,0.9,0.6c0.2,0.1,0.4,0.2,0.6,0.2
	c-7.8-1.1-15.7-0.6-28,2.1c0.3-0.3,0.9-0.9,1.8-1.8c-0.7,0.1-1.3,0.2-2,0.3c-0.1,0.2-0.2,0.4-0.3,0.5c-0.1,0.3-0.2,0.6-0.4,0.8
	c0,0.2,0.1,0.2,0.2,0.3c-2.3,0.5-4.7,1.1-7.4,1.8c-11.3,2.8-25.8,7.5-45.7,13c0.1-0.1,0.1-0.2,0.2-0.3c-0.5,0.1-0.9,0.1-1.4,0
	c-0.1,0.2-0.2,0.4-0.3,0.6c-2.6,0.7-5.4,1.5-8.2,2.2c0.1-0.6,0.2-1.4,0.3-2.1c0.1-0.1,0.2-0.1,0.3-0.2c0-0.5,0-0.9,0.1-1.4
	c-0.1,0.1-0.2,0.1-0.3,0.1c0.3-2.3,0.8-4.5,1.2-6.6c0,0,0,0,0.1,0c0.1-0.4,0.3-0.7,0.4-1.1c0.1-0.3,0.3-0.6,0.4-0.8
	c-0.2,0.1-0.5,0.2-0.7,0.3C106-1.6,124.8,0.2,132,9.8c2.5,3.4,7.6-0.7,6.9-3c-0.6-2-2.6-5.4-18.4-4.7C106.3,3,99.8,16.3,97.2,27.4
	c-0.1,0.1-0.3,0.3-0.5,0.5c0.4,0.6,0.3,1.5-0.2,2c-0.3,1.4-0.5,2.8-0.7,4c0.1,0.2,0.1,0.3,0.1,0.5c0,0.2,0,0.5-0.1,0.7
	c0,0.1,0,0.1,0,0.1c0,0,0,0,0,0.1c0,0.2-0.1,0.4-0.1,0.6c0,0,0,0.1,0,0.1c0,0,0.1,0,0.1,0c-0.1,0.8-0.1,1.5-0.2,2.2
	c-4.6,1.3-19.7,3-33.9,1.3c-4.1-0.4-8.2-1.5-12.2-2.9c-1.2-0.3-2.3-0.7-3.5-1.3c-9.4-3.6-18-8.4-23.6-9.5c0.1-0.1,0.3-0.2,0.4-0.3
	c-0.1-0.1-0.3-0.1-0.4-0.2c-0.4,0.1-0.8,0.2-1.2,0.2c-0.1,0.1-0.1,0.1-0.2,0.2h-1C13.3,25.5,2.7,31.1,2,44.1
	C1.9,61,18.9,66.4,29,66.4c10.7,1,38.8-6.2,66.9-21.9c2.2,14.7,9.4,23.1,17.5,28.3c5.4,3.5,11.3,5.6,16.5,6.8
	c0.1,0.2,0.3,0.4,0.4,0.7c0.4,0,0.7,0.1,1.1,0.2c0.3,0,0.5,0,0.8,0.1c0.4-0.1,0.8-0.1,1.2-0.1c0.7,0,1.4,0.1,2,0.4c0,0,0,0,0,0
	c2.4,0.4,4.5,0.6,6,0.7c19.2,1.3,72.1-19.9,85.4-22.3c-3.3,39.5-24.3,37.2-27.5,36c-2.1-0.4-6.1-3.4-9-6c-2.9-2.6-4.9-0.7-6,1.7
	c-1.1,2.4,0.7,6.3,14.6,6.9c23.4-0.1,28.9-26.9,29.2-39c4.1-0.6,13.6-3.7,33-2.1c19.4,1.6,33.3,12.7,43.3,12.9
	C315.5,69.3,322.4,57.6,322,49.3z M196.2,66c0-0.1,0-0.1,0-0.2c0-0.1,0.1-0.3,0.1-0.4c-0.2,0.1-0.4,0.1-0.5,0.2c0,0.2,0,0.4,0,0.6
	c0,0.1,0,0.1,0,0.2c-4,1.5-8.1,3-12.3,4.5c-15.5,5-29.2,8.9-39.9,8.8c-2.4,0-4.7-0.2-6.9-0.4c0,0,0-0.1,0.1-0.1
	c-0.6,0-1.1-0.1-1.6-0.2c-0.1,0-0.1,0.1-0.1,0.1c-1.3-0.2-2.5-0.4-3.7-0.7c-0.1-0.1-0.3-0.2-0.3-0.3c-0.5,0-1-0.1-1.4-0.2
	c0,0,0,0.1,0,0.1c-17.1-4.3-30.1-16.3-32.1-33.8c1-0.4,2.6-1.1,4.8-2.1c0.7-0.7,1.7-1.2,2.9-1.3c16.7-7.3,53.9-23,76.2-22.2
	c21,1.3,37.1,10.4,43.6,28.1c-0.1,0.1-0.3,0.2-0.4,0.4c-0.1,0.1-0.1,0.1-0.2,0.2c0,0.2,0.1,0.4,0.1,0.5c0.1-0.1,0.2-0.2,0.3-0.3
	c0.6,1.6,1,3.3,1.4,5C219.2,56.3,208.3,61.3,196.2,66z"/>
<path class="st1" d="M322,49.3c0-2.9-2.7-18.2-24-20.2c-23.4-1.6-44.8,10.7-70.3,23.2c-4-19.7-18.4-29.5-34.7-33.5
	c-11-2.5-20.8-1.8-40.7,3.2c-13.1,3.3-30.4,8.9-55.4,15.7c0.3-3.2,0.8-6.1,1.4-8.8c0,0,0,0,0-0.1c0-0.8,0.2-1.5,0.5-2.2
	c6.9-28.2,26-26.5,33.2-16.8c2.5,3.4,7.6-0.7,6.9-3c-0.6-2-2.6-5.4-18.4-4.7c-14.6,1-21,15.1-23.5,26.5c0,0.3,0,0.7-0.2,1
	c-0.7,3.3-1,6.2-1.1,8.5c-4.6,1.3-19.7,3-33.9,1.3c-3.9-0.4-7.9-1.4-11.8-2.7c-1.5-0.3-3-0.9-4.5-1.6c-10.9-4.2-20.4-9.8-25.7-9.4
	c-6.4-0.2-17,5.4-17.7,18.4C1.9,61,18.9,66.4,29,66.4c10.7,1,38.8-6.2,66.9-21.9c2.2,14.7,9.4,23.1,17.5,28.3
	c7,4.5,14.7,6.7,20.7,7.7c0.2,0,0.3,0,0.4,0.1c2.7,0.5,5,0.7,6.7,0.8c19.2,1.3,72.1-19.9,85.4-22.3c-3.3,39.5-24.3,37.2-27.5,36
	c-2.1-0.4-6.1-3.4-9-6c-2.9-2.6-4.9-0.7-6,1.7c-1.1,2.4,0.7,6.3,14.6,6.9c23.4-0.1,28.9-26.9,29.2-39c4.1-0.6,13.6-3.7,33-2.1
	c19.4,1.6,33.3,12.7,43.3,12.9C315.5,69.3,322.4,57.6,322,49.3z M182.7,70.9c-14.8,5.1-28.5,8.9-39.2,8.8
	c-23.7-0.1-43.8-13.4-46.3-35.6c1.1-0.4,3.1-1.3,5.7-2.5c0.4-0.3,0.9-0.5,1.4-0.6c16.5-7.2,54.1-23.1,76.7-22.3
	c23.3,1.4,40.4,12.4,45.3,34C216.7,57.6,199.8,65.1,182.7,70.9z"/>
<rect x="10.1" y="61" class="st2" width="3.9" height="0.9"/>
<text transform="matrix(1.3832 -0.3836 0.2672 0.9636 92.0002 75.6452)" class="st3 st4">Borago</text>
<path class="st2" d="M132.3,74.2"/>
</svg>
