<?xml version="1.0" encoding="utf-8"?>
<!-- Generator: Adobe Illustrator 21.0.0, SVG Export Plug-In . SVG Version: 6.00 Build 0)  -->
<svg version="1.1" id="Layer_1" preserveAspectRatio="none" xmlns="http://www.w3.org/2000/svg" xmlns:xlink="http://www.w3.org/1999/xlink" x="0px" y="0px"
	 viewBox="0 0 1100 82" style="enable-background:new 0 0 1100 82;" xml:space="preserve">
<style type="text/css">
	.st0{opacity:0.3;fill:#232020;}
	.st1{fill:#148E25;}
	.st2{fill:#FFFFFF;}
</style>
<path class="st0" d="M1100,82.3H0c0-13.2,0-38.8,0-52C55.9,42.9,141,58.1,245,60C444.8,63.7,539.4,32.3,720.5,20
	c89.8-6.1,219.3-4.5,379.5,34.4V82.3z"/>
<path class="st1" d="M1100,77.3H0c0-13.2,0-16.6,0-29.8c55.9,12.7,141,22.9,245,24.8C444.8,76,539.4,27.3,720.5,15
	c89.8-6.1,219.3,0.5,379.5,39.4V77.3z"/>
<path class="st2" d="M1100,82.3H0c0-13.2,0-21.6,0-34.8c55.9,12.7,141,27.9,245,29.8C444.8,81,539.4,32.3,720.5,20
	c89.8-6.1,219.3-4.5,379.5,34.4V82.3z"/>
</svg>
