<?xml version="1.0" encoding="utf-8"?>
<!-- Generator: Adobe Illustrator 21.0.0, SVG Export Plug-In . SVG Version: 6.00 Build 0)  -->
<svg version="1.1" width="100%" preserveAspectRatio="none" viewBox="0 0 1100 82" xmlns="http://www.w3.org/2000/svg" xmlns:xlink="http://www.w3.org/1999/xlink"
	 xml:space="preserve">
<style type="text/css">
	.st0{opacity:0.3;fill:#232020;}
	.st1{fill:#D8860F;}
	.st2{fill:#FFFFFF;}
</style>
<path class="st0" d="M0,0l1100,0c0,13.2,0,38.8,0,52c-55.9-12.7-141-27.9-245-29.8C655.2,18.5,560.6,50,379.5,62.3
	C289.7,68.4,160.2,66.8,0,27.9L0,0z"/>
<path class="st1" d="M0,5h1100c0,13.2,0,16.6,0,29.8C1044.1,22.1,959,11.9,855,10C655.2,6.3,560.6,55,379.5,67.3
	C289.7,73.4,160.2,66.8,0,27.9L0,5z"/>
<path class="st2" d="M0,0l1100,0c0,13.2,0,21.6,0,34.8C1044.1,22.1,959,6.9,855,5C655.2,1.3,560.6,50,379.5,62.3
	C289.7,68.4,160.2,66.8,0,27.9L0,0z"/>
</svg>
